<svg xmlns="http://www.w3.org/2000/svg" xmlns:xlink="http://www.w3.org/1999/xlink" width="50" zoomAndPan="magnify"
     viewBox="0 0 85.5 85.499997" height="50" preserveAspectRatio="xMidYMid meet" version="1.0">
  <defs>
    <g/>
    <clipPath id="c39d17dc72">
      <path d="M 0 0 L 85.003906 0 L 85.003906 85.003906 L 0 85.003906 Z M 0 0 " clip-rule="nonzero"/>
    </clipPath>
  </defs>
  <g clip-path="url(#c39d17dc72)">
    <path fill="#ffffff" d="M 0 0 L 85.003906 0 L 85.003906 85.003906 L 0 85.003906 Z M 0 0 " fill-opacity="1"
          fill-rule="nonzero"/>
    <path fill="#d4edf4" d="M 0 0 L 85.003906 0 L 85.003906 85.003906 L 0 85.003906 Z M 0 0 " fill-opacity="1"
          fill-rule="nonzero"/>
  </g>
  <g fill="#2a2e30" fill-opacity="1">
    <g transform="translate(15.13229, 61.202088)">
      <g>
        <path
          d="M 13.375 0.5625 C 10.914062 0.5625 8.875 0.203125 7.25 -0.515625 C 5.625 -1.234375 4.425781 -1.992188 3.65625 -2.796875 C 2.882812 -3.609375 2.5 -4.09375 2.5 -4.25 L 3.90625 -6.453125 C 3.90625 -6.335938 4.265625 -5.910156 4.984375 -5.171875 C 5.703125 -4.441406 6.75 -3.765625 8.125 -3.140625 C 9.507812 -2.515625 11.203125 -2.203125 13.203125 -2.203125 C 15.578125 -2.203125 17.441406 -2.890625 18.796875 -4.265625 C 20.160156 -5.648438 20.84375 -7.363281 20.84375 -9.40625 C 20.84375 -10.800781 20.503906 -11.96875 19.828125 -12.90625 C 19.148438 -13.851562 18.3125 -14.609375 17.3125 -15.171875 C 16.3125 -15.742188 14.957031 -16.390625 13.25 -17.109375 C 11.289062 -17.898438 9.707031 -18.65625 8.5 -19.375 C 7.289062 -20.09375 6.269531 -21.082031 5.4375 -22.34375 C 4.601562 -23.613281 4.1875 -25.226562 4.1875 -27.1875 C 4.1875 -30.289062 5.164062 -32.757812 7.125 -34.59375 C 9.09375 -36.425781 11.722656 -37.34375 15.015625 -37.34375 C 16.640625 -37.34375 18.101562 -37.101562 19.40625 -36.625 C 20.707031 -36.15625 21.753906 -35.644531 22.546875 -35.09375 C 23.335938 -34.550781 23.734375 -34.238281 23.734375 -34.15625 L 23.171875 -31.671875 C 23.171875 -31.742188 22.789062 -32.046875 22.03125 -32.578125 C 21.28125 -33.109375 20.316406 -33.597656 19.140625 -34.046875 C 17.972656 -34.503906 16.671875 -34.734375 15.234375 -34.734375 C 13.117188 -34.734375 11.457031 -34.144531 10.25 -32.96875 C 9.039062 -31.800781 8.4375 -30.21875 8.4375 -28.21875 C 8.4375 -26.820312 8.765625 -25.660156 9.421875 -24.734375 C 10.085938 -23.804688 10.921875 -23.054688 11.921875 -22.484375 C 12.921875 -21.921875 14.253906 -21.300781 15.921875 -20.625 C 17.921875 -19.789062 19.523438 -19.003906 20.734375 -18.265625 C 21.941406 -17.535156 22.96875 -16.507812 23.8125 -15.1875 C 24.664062 -13.863281 25.09375 -12.160156 25.09375 -10.078125 C 25.09375 -8.003906 24.609375 -6.164062 23.640625 -4.5625 C 22.679688 -2.957031 21.316406 -1.703125 19.546875 -0.796875 C 17.773438 0.109375 15.71875 0.5625 13.375 0.5625 Z M 13.375 0.5625 "/>
      </g>
    </g>
  </g>
  <g fill="#2a2e30" fill-opacity="1">
    <g transform="translate(41.76214, 61.202088)">
      <g>
        <path
          d="M 5.328125 -36.828125 L 14.171875 -36.828125 C 17.941406 -36.828125 20.875 -35.84375 22.96875 -33.875 C 25.070312 -31.914062 26.125 -29.007812 26.125 -25.15625 C 26.125 -22.28125 25.554688 -19.925781 24.421875 -18.09375 C 23.285156 -16.269531 21.820312 -14.953125 20.03125 -14.140625 C 18.238281 -13.328125 16.320312 -12.921875 14.28125 -12.921875 L 9.625 -12.921875 L 9.625 0 L 5.328125 0 Z M 13.65625 -15.296875 C 18.945312 -15.296875 21.59375 -18.523438 21.59375 -24.984375 C 21.59375 -28.160156 20.910156 -30.507812 19.546875 -32.03125 C 18.179688 -33.5625 16.234375 -34.328125 13.703125 -34.328125 L 9.625 -34.328125 L 9.625 -15.296875 Z M 13.65625 -15.296875 "/>
      </g>
    </g>
  </g>
</svg>
